# xmcd
#
# Track frame offsets: 
#        150
#        15857
#        37845
#        52153
#        70349
#        89575
#        116390
#        129300
#        148925
#        173914
#        195402
#        213590
#
# Disc length: 3176 seconds
#
# Revision: 0
# Processed by: cddbd v1.5.2PL0 Copyright (c) Steve Scherf et al.
# Submitted via: ExactAudioCopyFreeDBPlugin 1.0
#
DISCID=a60c660c
DTITLE=Tanga, Bibi - Dunya
DYEAR=2009
DGENRE=Soul
TTITLE0=The Moon
TTITLE1=Red Wine
TTITLE2=Swing Swing
TTITLE3=Dunya
TTITLE4=Pasi
TTITLE5=Let Them Run
TTITLE6=Gospel Singers
TTITLE7=Be Africa
TTITLE8=Shine
TTITLE9=Bonjour Mon Ami Jean
TTITLE10=Goodbye
TTITLE11=It's The Earth That Moves
EXTD=
EXTT0=
EXTT1=
EXTT2=
EXTT3=
EXTT4=
EXTT5=
EXTT6=
EXTT7=
EXTT8=
EXTT9=
EXTT10=
EXTT11=
PLAYORDER=
